<svg width="22" height="22" viewBox="0 0 22 22" fill="none" xmlns="http://www.w3.org/2000/svg">
<path d="M17.5983 9.63346V7.01237C17.5983 6.04731 16.816 5.26497 15.8509 5.26497H5.36654C4.40148 5.26497 3.61914 6.04731 3.61914 7.01237V9.63346M17.5983 9.63346H3.61914M17.5983 9.63346V11.1624M3.61914 9.63346V17.4967C3.61914 18.4618 4.40148 19.2441 5.36654 19.2441H9.73503M7.11393 3.51758V7.01237M14.1035 3.51758V7.01237" stroke="#054429" stroke-width="1.7474" stroke-linecap="round"/>
<path d="M14.7359 12.8367C14.8254 12.6215 15.1303 12.6215 15.2199 12.8367L16.0719 14.8852C16.1096 14.9759 16.195 15.0379 16.2929 15.0458L18.5044 15.2231C18.7368 15.2417 18.831 15.5317 18.6539 15.6834L16.9691 17.1267C16.8944 17.1906 16.8618 17.291 16.8846 17.3866L17.3994 19.5446C17.4535 19.7713 17.2068 19.9506 17.0078 19.8291L15.1145 18.6726C15.0306 18.6214 14.9251 18.6214 14.8412 18.6726L12.9479 19.8291C12.749 19.9506 12.5023 19.7713 12.5564 19.5446L13.0711 17.3866C13.0939 17.291 13.0613 17.1906 12.9867 17.1267L11.3018 15.6834C11.1247 15.5317 11.219 15.2417 11.4514 15.2231L13.6628 15.0458C13.7608 15.0379 13.8461 14.9759 13.8839 14.8852L14.7359 12.8367Z" fill="#054429"/>
</svg>
