<svg width="26" height="24" viewBox="0 0 26 24" fill="none" xmlns="http://www.w3.org/2000/svg">
<path d="M6.5 21C6.20333 21 5.91332 21.088 5.66664 21.2528C5.41997 21.4176 5.22771 21.6519 5.11418 21.926C5.00065 22.2001 4.97094 22.5017 5.02882 22.7926C5.0867 23.0836 5.22956 23.3509 5.43934 23.5607C5.64912 23.7704 5.91639 23.9133 6.20736 23.9712C6.49834 24.0291 6.79994 23.9993 7.07403 23.8858C7.34811 23.7723 7.58238 23.58 7.7472 23.3334C7.91203 23.0867 8 22.7967 8 22.5C8 22.1022 7.84196 21.7206 7.56066 21.4393C7.27936 21.158 6.89782 21 6.5 21ZM17 18H5C4.73478 18 4.48043 17.8946 4.29289 17.7071C4.10536 17.5196 4 17.2652 4 17C4 16.7348 4.10536 16.4804 4.29289 16.2929C4.48043 16.1054 4.73478 16 5 16H13.4912C14.1426 15.9979 14.7758 15.7847 15.2959 15.3925C15.816 15.0002 16.195 14.45 16.376 13.8242L17.9614 8.2749C18.004 8.12607 18.0114 7.9694 17.9831 7.81722C17.9548 7.66505 17.8915 7.52152 17.7983 7.39793C17.7051 7.27435 17.5845 7.17408 17.446 7.10503C17.3075 7.03598 17.1548 7.00003 17 7H4.73907C4.53206 6.41736 4.15044 5.91271 3.64622 5.55481C3.14201 5.19692 2.53971 5.00318 1.92139 5H1C0.734784 5 0.48043 5.10536 0.292893 5.29289C0.105357 5.48043 0 5.73478 0 6C0 6.26522 0.105357 6.51957 0.292893 6.70711C0.48043 6.89464 0.734784 7 1 7H1.92139C2.13847 7.00076 2.34947 7.07182 2.52279 7.20253C2.6961 7.33325 2.82242 7.51659 2.88281 7.7251L3.03833 8.26984L3.03857 8.2749L4.6792 14.0171C3.91576 14.0992 3.21287 14.4709 2.71527 15.0557C2.21766 15.6405 1.96321 16.3938 2.00433 17.1606C2.04544 17.9273 2.37898 18.6491 2.93626 19.1773C3.49355 19.7055 4.23216 20 5 20H17C17.2652 20 17.5196 19.8946 17.7071 19.7071C17.8946 19.5196 18 19.2652 18 19C18 18.7348 17.8946 18.4804 17.7071 18.2929C17.5196 18.1054 17.2652 18 17 18ZM15.6743 9L14.4531 13.2744C14.3928 13.4831 14.2664 13.6666 14.093 13.7974C13.9196 13.9282 13.7084 13.9993 13.4912 14H6.75439L6.49945 13.1078L5.32642 9H15.6743ZM14.5 21C14.2033 21 13.9133 21.088 13.6666 21.2528C13.42 21.4176 13.2277 21.6519 13.1142 21.926C13.0006 22.2001 12.9709 22.5017 13.0288 22.7926C13.0867 23.0836 13.2296 23.3509 13.4393 23.5607C13.6491 23.7704 13.9164 23.9133 14.2074 23.9712C14.4983 24.0291 14.7999 23.9993 15.074 23.8858C15.3481 23.7723 15.5824 23.58 15.7472 23.3334C15.912 23.0867 16 22.7967 16 22.5C16 22.1022 15.842 21.7206 15.5607 21.4393C15.2794 21.158 14.8978 21 14.5 21Z" fill="#067848"/>
<circle cx="19.5" cy="6.5" r="6.5" fill="white"/>
<path d="M19.2816 3.88L20.2016 3.888V9.008H19.1136V5.08L17.9536 5.76L17.5616 4.912L19.2816 3.88V3.888V3.88Z" fill="#067848"/>
</svg>
